<?xml version="1.0" standalone="no"?>
<!DOCTYPE svg PUBLIC "-//W3C//DTD SVG 1.1//EN" "http://www.w3.org/Graphics/SVG/1.1/DTD/svg11.dtd">
<svg width="217mm" height="140mm" viewBox="-95 -70 217 140" xmlns="http://www.w3.org/2000/svg" version="1.1">
<title>OpenSCAD Model</title>
<path d="
M -15,5 L -14.6194,3.08659 L -13.5355,1.46448 L -11.9134,0.380615 L -10,-0 L 10,-0
 L 11.9134,0.380615 L 13.5355,1.46448 L 14.6194,3.08659 L 15,5 L 15,69.25 L 89.25,69.25
 L 91.1634,68.8694 L 92.7855,67.7855 L 93.8694,66.1634 L 94.25,64.25 L 94.25,-64.25 L 93.8694,-66.1634
 L 92.7855,-67.7855 L 91.1634,-68.8694 L 89.25,-69.25 L -89.25,-69.25 L -91.1634,-68.8694 L -92.7855,-67.7855
 L -93.8694,-66.1634 L -94.25,-64.25 L -94.25,64.25 L -93.8694,66.1634 L -92.7855,67.7855 L -91.1634,68.8694
 L -89.25,69.25 L -15,69.25 z
M 106.518,-18.2322 L 107.25,-20 L 107.25,-50 L 106.518,-51.7678 L 104.75,-52.5 L 99.75,-52.5
 L 97.9822,-51.7678 L 97.25,-50 L 97.25,-20 L 97.9822,-18.2322 L 99.75,-17.5 L 104.75,-17.5
 z
M 120.518,-18.2322 L 121.25,-20 L 121.25,-50 L 120.518,-51.7678 L 118.75,-52.5 L 113.75,-52.5
 L 111.982,-51.7678 L 111.25,-50 L 111.25,-20 L 111.982,-18.2322 L 113.75,-17.5 L 118.75,-17.5
 z
M 106.518,21.7678 L 107.25,20 L 107.25,-10 L 106.518,-11.7678 L 104.75,-12.5 L 99.75,-12.5
 L 97.9822,-11.7678 L 97.25,-10 L 97.25,20 L 97.9822,21.7678 L 99.75,22.5 L 104.75,22.5
 z
M 120.518,21.7678 L 121.25,20 L 121.25,-10 L 120.518,-11.7678 L 118.75,-12.5 L 113.75,-12.5
 L 111.982,-11.7678 L 111.25,-10 L 111.25,20 L 111.982,21.7678 L 113.75,22.5 L 118.75,22.5
 z
" stroke="black" fill="lightgray" stroke-width="0.5"/>
</svg>
